<svg xmlns="http://www.w3.org/2000/svg" width="123" height="65" viewBox="0 0 123 65" fill="none"><g clip-path="url(#clip0_12002_284)"><mask id="mask0_12002_284" style="mask-type:luminance" maskUnits="userSpaceOnUse" x="86" y="5" width="1" height="1"><path d="M86.0273 5.13577C86.0273 5.13577 86.0299 5.13577 86.029 5.12891C86.029 5.13148 86.0282 5.1332 86.0273 5.13577Z" fill="white"></path></mask><g mask="url(#mask0_12002_284)"></g><mask id="mask1_12002_284" style="mask-type:luminance" maskUnits="userSpaceOnUse" x="83" y="2" width="1" height="1"><path d="M83.5281 2.74906C83.5281 2.74906 83.5298 2.74476 83.5306 2.74219C83.5306 2.74219 83.5255 2.74219 83.5281 2.74906Z" fill="white"></path></mask><g mask="url(#mask1_12002_284)"><path d="M83.5325 2.74219H83.5273V2.74906H83.5325V2.74219Z" fill="url(#paint0_linear_12002_284)"></path></g><path d="M61.0002 53.0666C61.0281 52.9489 65.9294 52.9519 66.4472 52.8859C65.5706 55.3597 62.54 61.981 60.8525 62.266C60.031 61.0737 60.4719 55.3192 61.0002 53.0666ZM58.0299 50.4226C58.0472 50.3866 58.0616 50.3506 58.0744 50.3146C58.0812 50.3123 58.0872 50.3101 58.0955 50.3086C58.7557 50.1774 59.4167 50.0574 60.08 49.9472C60.4342 49.8887 60.0377 50.7713 59.9918 50.9212C59.979 50.9647 59.9119 50.9827 59.8101 50.9827C59.3594 50.9827 58.2251 50.6213 58.0307 50.4218M61.6544 51.2242C61.3514 51.2092 61.8413 49.9674 61.9077 49.7522C62.0863 49.1748 67.2446 49.0916 68.0081 49.0346C68.3962 49.0053 67.4436 50.766 67.3478 50.9677C66.5632 51.2482 65.6369 51.3247 64.6451 51.3247C63.6532 51.3247 62.6681 51.2527 61.6537 51.2242M69.5803 49.0038C69.8184 48.4182 76.365 48.4594 76.4306 48.5824C76.671 49.0353 70.0189 50.5493 69.1348 50.721C69.125 50.7225 69.116 50.724 69.1077 50.724C68.764 50.724 69.5087 49.1823 69.5803 49.0046M62.5852 47.7156C64.3308 42.7042 66.5768 37.7176 68.8349 33.0519C71.4487 32.719 73.3043 32.0006 75.3023 31.019C75.6053 31.1007 69.5117 46.1498 68.9359 47.4651C68.7331 47.9278 63.3548 47.8055 62.5845 47.867V47.7156H62.5852ZM76.9009 30.1859C77.0283 29.8357 79.2653 28.483 79.5215 28.5317C82.1082 29.0244 84.4944 31.3415 85.6943 33.3833C89.2306 39.398 82.4775 45.6347 79.8102 47.2424C76.6989 47.3241 73.654 47.4059 70.4184 47.5041C70.0513 46.773 73.807 39.0426 76.9009 30.1859ZM70.0461 30.6493C70.2526 30.2586 75.6129 27.9018 75.9987 28.5324C76.2829 28.9014 71.8843 30.7558 70.4448 30.7558C70.2533 30.7558 70.1147 30.7228 70.0461 30.6493ZM79.832 17.1345C80.0566 17.1847 77.4255 25.3778 77.1444 26.2041C75.5616 26.6135 73.6766 26.93 72.1519 27.4946C73.3186 25.212 76.8979 19.4568 79.8313 17.1345M78.4633 26.3368C78.2214 26.2986 80.6777 19.4958 82.017 15.5335C82.7217 14.9621 87.7941 10.8633 89.1168 13.2397C91.1397 16.875 84.6685 23.3966 79.4062 26.4733C79.3761 26.4913 79.3308 26.4981 79.2758 26.4981C79.0377 26.4981 78.6193 26.3608 78.4633 26.3368ZM45.866 0.0262454C45.4025 0.241457 44.8425 0.39293 44.3428 0.737119C33.213 8.40676 27.194 26.8542 21.1177 39.5383C19.6178 42.4095 18.2544 45.301 16.4101 48.0148C16.7832 47.0242 17.2422 45.8244 17.5753 44.7123C18.3961 42.0076 18.8378 40.4568 19.7791 37.7596C22.3718 30.3299 24.9389 22.9437 27.4887 15.4188C27.7856 14.5429 28.8514 11.8352 29.082 10.7134C29.189 10.1929 29.6088 9.37184 29.2124 8.66997C28.5401 7.48068 27.0116 7.3412 26.1607 8.1728C25.5668 8.75245 24.4513 10.5064 24.1769 10.9841C17.6635 22.3415 12.8798 34.7129 7.85115 46.8157C6.44024 50.2111 5.57122 52.2253 4.05781 55.1205C4.0661 55.08 4.09398 54.9443 4.10906 54.8715C5.03912 50.9287 5.91566 46.9874 7.10123 43.1204C10.0738 33.4216 14.1347 23.2624 18.1331 14.2902C18.9448 12.4673 23.2514 3.26492 22.3078 1.92416C19.9434 -1.4345 15.823 6.67907 13.8415 9.11989C12.6439 10.5949 15.4951 12.1838 16.4591 10.0977C17.2844 8.31003 19.455 4.10927 20.4461 3.3939C20.0286 5.68924 17.567 10.6196 16.3792 13.5741C12.1058 24.199 7.38989 35.558 4.1279 46.9357C3.41792 49.4103 2.80969 51.8976 2.11779 54.3684C1.48544 56.8182 0.972178 59.3063 0.238079 61.6436C0.238079 61.6436 -0.199818 62.1025 0.12201 62.4917C0.617188 63.0908 1.32114 63.3848 1.83516 63.7635C1.94972 63.8482 2.12985 63.8332 2.22708 63.7132C2.60543 63.2461 3.10513 62.8014 3.44807 62.1992C3.80984 61.5649 3.94475 60.8765 4.18141 60.2893C4.89139 58.5324 5.7197 56.8519 6.48621 55.125C7.94235 51.8451 8.26342 50.91 9.59294 47.5161C14.6721 35.4815 18.7368 22.4375 26.0356 12.2573C25.8373 13.0049 25.5585 13.9003 25.3263 14.7244C23.3072 21.9051 20.5245 30.0374 17.9733 37.1034C17.0862 39.5607 16.4199 41.6266 15.6067 44.0854C14.6872 46.3823 13.7405 48.5172 12.8572 50.943C12.8572 50.943 11.8156 52.8784 12.4653 53.4078C13.1232 53.9447 14.0005 53.9297 14.6095 54.1292C16.1343 54.6278 21.2782 43.1451 22.5791 40.4186C27.9311 28.159 34.4551 8.87768 45.8562 2.65153C45.9979 2.57429 46.2105 2.55855 46.4818 2.5308C46.4818 2.5308 46.4856 2.54205 46.5074 2.61404C46.5059 2.62529 46.481 2.78801 46.4803 3.12395C46.4743 5.26482 46.6747 4.42872 46.0462 7.05625C43.4044 18.0973 34.6812 34.9408 35.756 46.7167C36.9355 59.6339 37.8196 54.7253 47.8128 52.8506C50.1741 52.4082 52.3893 51.057 54.4823 51.5534C54.7807 51.6246 55.0717 51.6591 55.3513 51.6651C56.414 52.3235 58.2085 52.5919 59.3127 52.7464C58.8341 55.9656 57.237 64.2501 60.1418 64.6416C64.1883 64.5096 67.0622 55.5299 68.3759 52.6174C73.0345 51.5346 77.8762 50.625 81.3749 48.287C87.3456 48.0927 117.169 48.1085 121.776 49.6217C123.61 48.8726 123.21 46.6028 121.741 47.2994C116.666 47.4261 88.6458 47.2416 83.1784 47.2416C83.0631 47.2416 82.9787 47.0834 83.085 46.9927C86.5949 43.9767 90.4297 38.3445 87.0909 32.3448C85.8827 30.1739 83.798 28.3645 81.4924 27.2472C81.4103 27.2074 81.3786 27.0755 81.4683 27.0072C84.6753 24.5649 90.8481 19.4838 90.787 14.1552C90.8013 9.42733 85.9144 10.5431 82.8777 12.5558C82.6916 12.522 84.3565 6.5111 84.5095 5.88571C84.5555 5.69899 85.7666 6.04168 86.0319 5.12984C86.2912 3.80258 87.5649 0.707125 85.8541 0.373434C84.4529 0.100482 83.9872 1.75544 83.5319 2.74901C82.2808 5.73199 81.8112 11.1588 80.7606 14.1065C76.1796 18.0995 73.0488 23.1567 69.6805 28.447C68.2281 28.9329 65.5111 31.274 67.4066 32.9154C65.1177 37.7543 62.8294 42.8609 60.9851 47.9488C59.6421 48.2465 56.7705 48.2937 55.349 49.0683C53.1701 49.294 50.3709 50.3836 47.6892 50.7233C38.7172 51.8601 37.6997 56.6195 37.0651 47.5326C36.2361 35.6667 43.5755 22.8237 48.2364 7.56091C48.7934 5.73723 50.1078 2.08838 47.7638 0.364435C47.2023 -0.0487414 46.481 0.0892342 46.0416 0.0044992C46.0266 0.00149973 46.01 0 45.9919 0C45.9512 0 45.9052 0.00824854 45.8668 0.0254955" fill="url(#paint1_linear_12002_284)"></path><path d="M10.8846 58.8724C10.1754 58.8724 9.79779 59.3403 9.79779 59.8847C9.79779 60.4291 10.3299 60.5904 10.9999 60.9278C11.0459 60.951 11.1002 60.9735 11.1537 60.9968C11.1612 60.9968 11.1695 61.0043 11.1771 61.0125C11.1846 61.0125 11.1921 61.0125 11.2004 61.02H11.2155C11.223 61.0275 11.2306 61.0358 11.2389 61.0433H11.2622C11.2698 61.0433 11.2773 61.0433 11.2856 61.0508H11.3316C11.3391 61.0583 11.3466 61.0665 11.3549 61.074H11.3783C11.4092 61.089 11.4401 61.1048 11.471 61.1198C11.5554 61.1655 11.6247 61.2037 11.6247 61.2037C12.1486 61.5104 12.588 61.8936 12.588 62.4995C12.588 63.2434 11.8169 63.8493 10.8997 63.8493H10.7226C10.3834 63.8493 10.0827 63.7495 9.83623 63.6266C9.66665 63.5418 9.44355 63.6033 9.37346 63.757L9.3501 63.8028C9.34256 63.826 9.31919 63.841 9.28829 63.841C9.24985 63.841 9.21895 63.8178 9.21895 63.787V62.2843C9.21895 62.2536 9.24985 62.2303 9.28829 62.2303C9.31919 62.2303 9.34256 62.2461 9.3501 62.2686C9.3501 62.2686 9.8204 63.5336 10.7218 63.5336H10.9223C11.6315 63.5336 12.0091 63.0199 12.0091 62.5213C12.0091 62.0691 11.3926 61.8081 11.3692 61.7931H11.3459C11.2381 61.7242 11.1145 61.6552 10.9834 61.5862C10.8756 61.5322 10.7603 61.4714 10.6367 61.41C10.5522 61.3642 10.1663 61.1573 10.1663 61.1573C9.64253 60.8506 9.20312 60.4674 9.20312 59.8615C9.20312 59.1176 9.97416 58.5117 10.8914 58.5117H11.0685C11.4077 58.5117 11.7084 58.6115 11.9549 58.7344C12.1244 58.8192 12.3483 58.7577 12.4176 58.604L12.441 58.5582C12.4485 58.535 12.4719 58.52 12.5028 58.52C12.5412 58.52 12.5721 58.5432 12.5721 58.574V60.0767C12.5721 60.1074 12.5412 60.1307 12.5028 60.1307C12.4719 60.1307 12.4485 60.1149 12.441 60.0924C12.441 60.0924 11.9707 58.8267 11.0693 58.8267H10.8688L10.8839 58.8724H10.8846Z" fill="white"></path><path d="M16.1276 63.8179C16.1276 63.8412 16.1125 63.8562 16.0891 63.8562H14.933C14.9096 63.8562 14.8945 63.8412 14.8945 63.8179C14.8945 63.8029 14.9021 63.7872 14.9179 63.7797L15.1108 63.7032C15.2186 63.665 15.288 63.5652 15.288 63.4505V60.1916C15.288 60.0769 15.2186 59.9771 15.1108 59.9381L14.9179 59.8616C14.9028 59.8541 14.8945 59.8384 14.8945 59.8234C14.8945 59.8001 14.9096 59.7852 14.933 59.7852H16.0891C16.1125 59.7852 16.1276 59.8009 16.1276 59.8234C16.1276 59.8384 16.12 59.8541 16.1042 59.8616L15.9113 59.9381C15.8035 59.9764 15.7341 60.0761 15.7341 60.1916V63.4505C15.7341 63.5652 15.8035 63.665 15.9113 63.7032L16.1042 63.7797C16.1193 63.7872 16.1276 63.8029 16.1276 63.8179Z" fill="white"></path><path d="M21.5811 62.1852C21.6045 62.1852 21.6195 62.201 21.6195 62.2235C21.6195 62.2392 21.612 62.2542 21.5962 62.2617C21.5035 62.3 21.4424 62.3922 21.4424 62.4919V63.0671C21.4424 63.1361 21.419 63.2051 21.3731 63.259C21.358 63.2748 21.3422 63.2898 21.3271 63.313C21.3196 63.3205 21.312 63.3288 21.3037 63.3363C21.2728 63.367 21.2344 63.4053 21.1801 63.4435C21.003 63.5972 20.7098 63.766 20.2169 63.8042C20.1551 63.8117 20.0933 63.8117 20.024 63.8117C18.7291 63.8117 18.0508 62.7844 18.0508 61.7721C18.0508 61.2427 18.2279 60.7447 18.5437 60.3766C18.9062 59.9551 19.415 59.7324 20.0232 59.7324C20.4935 59.7324 20.8093 59.8479 21.0256 59.9776C21.1183 60.0391 21.2412 60.0009 21.2804 59.9011L21.3263 59.7864C21.3339 59.7707 21.3497 59.7632 21.3648 59.7632C21.3881 59.7632 21.4032 59.7789 21.4032 59.8014V60.9517C21.4032 60.975 21.3881 60.99 21.3648 60.99C21.349 60.99 21.3339 60.9825 21.3263 60.9667L21.2954 60.8902C21.1801 60.591 20.9721 60.3383 20.694 60.1771C20.5169 60.0774 20.293 60.0009 20.0232 60.0009C19.5529 60.0009 19.1602 60.3533 18.8829 60.6758C18.6364 60.9675 18.4977 61.3656 18.4977 61.7953C18.4977 62.5699 18.9756 63.5897 20.024 63.5897C20.2704 63.5897 20.4784 63.544 20.648 63.4825C20.7023 63.4593 20.7483 63.4368 20.7867 63.4135C20.9254 63.3295 21.0098 63.1758 21.0098 63.0146V62.7079C21.0098 62.5932 20.9404 62.4934 20.8327 62.4552L20.4242 62.294C20.4091 62.2865 20.4008 62.2707 20.4008 62.2557C20.4008 62.2325 20.4159 62.2175 20.4392 62.2175H21.5954L21.5803 62.1867L21.5811 62.1852Z" fill="white"></path><path d="M27.3004 63.7885C27.3155 63.796 27.3238 63.8117 27.3238 63.8267C27.3238 63.85 27.3087 63.865 27.2853 63.865H26.7148C26.6914 63.865 26.6688 63.8492 26.653 63.8267L24.2713 60.6061C24.2638 60.5911 24.2404 60.5986 24.2404 60.6211V63.3971C24.2404 63.5425 24.3331 63.673 24.4718 63.727L24.6105 63.781C24.6256 63.7885 24.6338 63.8043 24.6338 63.8192C24.6338 63.8425 24.6188 63.8575 24.5954 63.8575H23.6322C23.6088 63.8575 23.5938 63.8425 23.5938 63.8192C23.5938 63.8035 23.6013 63.7885 23.6171 63.781L23.7558 63.727C23.8945 63.673 23.9872 63.535 23.9872 63.3821V60.2379C23.9872 60.0842 23.8945 59.9462 23.7558 59.8929L23.6171 59.839C23.602 59.8315 23.5938 59.8157 23.5938 59.8007C23.5938 59.7775 23.6088 59.7625 23.6322 59.7625H24.2027C24.2261 59.7625 24.2487 59.7775 24.2645 59.8007L26.6462 63.0214C26.6538 63.0364 26.6771 63.0289 26.6771 63.0056V60.2296C26.6771 60.0767 26.5844 59.9462 26.4457 59.8922L26.3071 59.8382C26.2912 59.8307 26.2837 59.815 26.2837 59.8C26.2837 59.7767 26.2988 59.7617 26.3221 59.7617H27.2853C27.3087 59.7617 27.3238 59.7767 27.3238 59.8C27.3238 59.815 27.3162 59.8307 27.3004 59.8382L27.1617 59.8922C27.0231 59.9462 26.9304 60.0842 26.9304 60.2371V63.3813C26.9304 63.535 27.0231 63.673 27.1617 63.7263L27.3004 63.7803V63.7878V63.7885Z" fill="white"></path><path d="M33.6512 63.7873C33.6662 63.7948 33.6745 63.8106 33.6745 63.8256C33.6745 63.8488 33.6595 63.8638 33.6361 63.8638H32.449C32.4257 63.8638 32.4106 63.8481 32.4106 63.8256C32.4106 63.8106 32.4181 63.7948 32.434 63.7873C32.596 63.7416 32.6804 63.5646 32.6111 63.4116L32.3179 62.691C32.3028 62.6453 32.2561 62.6145 32.2101 62.6145H30.5452C30.4992 62.6145 30.4525 62.6453 30.4374 62.691L30.1367 63.4274C30.0749 63.5729 30.1601 63.7341 30.3214 63.7723C30.3364 63.7798 30.3447 63.7956 30.3447 63.8106C30.3447 63.8338 30.3296 63.8488 30.3063 63.8488H29.3197C29.2963 63.8488 29.2812 63.8338 29.2812 63.8106C29.2812 63.7948 29.2888 63.7798 29.3046 63.7723L29.4433 63.7183C29.582 63.6643 29.8134 63.5264 29.8827 63.3809L31.2009 60.1452C31.2469 60.0455 31.2009 59.9308 31.0931 59.8918L30.9778 59.846C30.962 59.8385 30.9545 59.8228 30.9545 59.8078C30.9545 59.7845 30.9703 59.7695 30.9929 59.7695H31.571C31.5943 59.7695 31.617 59.7845 31.6252 59.8078L31.7097 60.0222L33.0814 63.3884C33.1432 63.5339 33.3746 63.6718 33.5132 63.7258L33.6519 63.7798V63.7873H33.6512ZM32.1717 62.3378L31.3931 60.4054C31.3856 60.3904 31.3622 60.3904 31.3547 60.4054L30.5761 62.3378C30.5686 62.3536 30.5761 62.3686 30.5912 62.3686H32.1558C32.1717 62.3686 32.1792 62.3536 32.1717 62.3378Z" fill="white"></path><path d="M37.767 59.7695C37.7903 59.7695 37.8054 59.7853 37.8054 59.8078V60.3754C37.8054 60.3987 37.7903 60.4137 37.767 60.4137C37.7519 60.4137 37.7361 60.4062 37.7285 60.3904L37.6743 60.2524C37.62 60.1145 37.4813 60.0222 37.3276 60.0222H36.7344C36.6884 60.0222 36.6492 60.0605 36.6492 60.1062V63.4499C36.6492 63.5646 36.7186 63.6643 36.8263 63.7033L37.0193 63.7798C37.0351 63.7873 37.0427 63.8031 37.0427 63.8181C37.0427 63.8413 37.0276 63.8563 37.0042 63.8563H35.8481C35.8247 63.8563 35.8096 63.8406 35.8096 63.8181C35.8096 63.8031 35.8172 63.7873 35.833 63.7798L36.0259 63.7033C36.1337 63.6651 36.203 63.5654 36.203 63.4499V60.1062C36.203 60.0605 36.1646 60.0222 36.1179 60.0222H35.5247C35.371 60.0222 35.2315 60.1145 35.178 60.2524L35.1238 60.3904C35.1162 60.4054 35.1004 60.4137 35.0853 60.4137C35.0619 60.4137 35.0469 60.3979 35.0469 60.3754V59.8078C35.0469 59.7845 35.0627 59.7695 35.0853 59.7695H37.7677H37.767Z" fill="white"></path><path d="M43.0989 59.777C43.1223 59.777 43.1374 59.7928 43.1374 59.8153C43.1374 59.831 43.1298 59.846 43.114 59.8535L42.9211 59.93C42.8133 59.9682 42.7439 60.068 42.7439 60.1835V62.538C42.7439 63.4041 42.0814 63.8571 41.4257 63.8571C41.0866 63.8571 40.7632 63.7423 40.5243 63.5271C40.2545 63.2819 40.1083 62.937 40.1083 62.5305V60.176C40.1083 60.0612 40.0389 59.9615 39.9312 59.9225L39.7382 59.846C39.7224 59.8385 39.7148 59.8228 39.7148 59.8078C39.7148 59.7845 39.7307 59.7695 39.7533 59.7695H40.9095C40.9328 59.7695 40.9479 59.7853 40.9479 59.8078C40.9479 59.8235 40.9404 59.8385 40.9245 59.846L40.7316 59.9225C40.6238 59.9607 40.5545 60.0605 40.5545 60.176V62.7143C40.5545 63.3277 40.9939 63.6036 41.4333 63.6036C41.8727 63.6036 42.505 63.3277 42.505 62.7143V60.176C42.505 60.0612 42.4357 59.9615 42.3279 59.9225L42.135 59.846C42.1191 59.8385 42.1116 59.8228 42.1116 59.8078C42.1116 59.7845 42.1274 59.7695 42.15 59.7695H43.1133L43.0982 59.777H43.0989Z" fill="white"></path><path d="M48.4564 63.7801C48.4715 63.7876 48.4797 63.8034 48.4797 63.8184C48.4797 63.8416 48.4647 63.8566 48.4413 63.8566H48.0403C47.7705 63.8566 47.5241 63.7111 47.3854 63.4577L46.6068 61.9242C46.5917 61.901 46.5608 61.886 46.5299 61.886H45.9443C45.8983 61.886 45.8591 61.9242 45.8591 61.97V63.4577C45.8591 63.5724 45.9285 63.6722 46.0363 63.7111L46.2292 63.7876C46.245 63.7951 46.2526 63.8109 46.2526 63.8259C46.2526 63.8491 46.2375 63.8641 46.2141 63.8641H45.058C45.0346 63.8641 45.0195 63.8484 45.0195 63.8259C45.0195 63.8109 45.0271 63.7951 45.0429 63.7876L45.2358 63.7111C45.3436 63.6729 45.413 63.5732 45.413 63.4577V60.252C45.413 60.099 45.3203 59.9603 45.1816 59.9071L45.0429 59.8538C45.0278 59.8463 45.0195 59.8306 45.0195 59.8156C45.0195 59.7923 45.0346 59.7773 45.058 59.7773H46.9618C47.7095 59.7773 48.1021 60.3068 48.1021 60.8279C48.1021 61.2576 47.7554 61.8095 47.0847 61.871C47.0696 61.871 47.0613 61.8867 47.0696 61.9017L47.7479 63.2282C47.8632 63.4584 48.0562 63.6347 48.2951 63.7269L48.4413 63.7809H48.4564V63.7801ZM46.9761 61.6175C47.4615 61.6175 47.6778 61.3033 47.6778 60.8122C47.6778 60.375 47.4623 60.0068 46.9761 60.0068H45.9511C45.9051 60.0068 45.8667 60.045 45.8667 60.0915V61.541C45.8667 61.5868 45.9051 61.625 45.9511 61.625L46.9761 61.6175Z" fill="white"></path><path d="M53.1591 63.1587C53.1824 63.1587 53.1975 63.1745 53.1975 63.197V63.7264C53.1975 63.7721 53.1591 63.8104 53.1131 63.8104H50.2611C50.2377 63.8104 50.2227 63.7954 50.2227 63.7721C50.2227 63.7564 50.2302 63.7414 50.246 63.7339L50.4307 63.6649C50.5385 63.6267 50.6078 63.5269 50.6078 63.4114V60.145C50.6078 60.0303 50.5385 59.9306 50.4307 59.8916L50.246 59.8226C50.2309 59.8151 50.2227 59.7993 50.2227 59.7843C50.2227 59.7611 50.2377 59.7461 50.2611 59.7461H52.8742C52.9201 59.7461 52.9586 59.7843 52.9586 59.8301V60.3595C52.9586 60.3827 52.9435 60.3977 52.9201 60.3977C52.9051 60.3977 52.8892 60.3902 52.8817 60.3745L52.8274 60.2365C52.7732 60.0985 52.6428 60.0063 52.4958 59.9988H51.1241C51.0781 59.9988 51.0389 60.037 51.0389 60.0828V61.0719C51.0389 61.1176 51.0773 61.1558 51.1241 61.1558H52.0948C52.2493 61.1558 52.388 61.0636 52.4415 60.9256L52.4958 60.7877C52.5033 60.7727 52.5192 60.7644 52.5342 60.7644C52.5576 60.7644 52.5727 60.7794 52.5727 60.8027V61.761C52.5727 61.7842 52.5569 61.7992 52.5342 61.7992C52.5192 61.7992 52.5033 61.7917 52.4958 61.776L52.4415 61.638C52.3873 61.5 52.2486 61.4078 52.0948 61.4078H51.1241C51.0781 61.4078 51.0389 61.446 51.0389 61.4918V63.5164C51.0389 63.5622 51.0773 63.6004 51.1241 63.6004H52.7196C52.8659 63.6004 52.997 63.5082 53.0513 63.3702L53.1055 63.2322C53.1131 63.2165 53.1289 63.209 53.144 63.209L53.1591 63.155V63.1587Z" fill="white"></path><path d="M72.9778 58.4727C73.9644 58.4727 74.4807 59.1708 74.4807 59.8607C74.4807 60.4666 73.9644 61.2487 72.9778 61.2487H71.6287C71.5669 61.2487 71.5209 61.2944 71.5209 61.3559V63.3115C71.5209 63.4653 71.6136 63.6032 71.7523 63.6565L72.0063 63.7562C72.0296 63.7637 72.0447 63.787 72.0447 63.8102C72.0447 63.841 72.0214 63.8642 71.9905 63.8642H70.48C70.4491 63.8642 70.4258 63.841 70.4258 63.8102C70.4258 63.787 70.4416 63.7645 70.4642 63.7562L70.7182 63.6565C70.8569 63.6025 70.9496 63.4645 70.9496 63.3115V59.1018C70.9496 58.9023 70.826 58.7261 70.6413 58.6571L70.4642 58.5881C70.4409 58.5806 70.4258 58.5574 70.4258 58.5341C70.4258 58.5034 70.4491 58.4802 70.48 58.4802H72.9853L72.9778 58.4727ZM72.9778 60.9037C73.6177 60.9037 73.9026 60.4898 73.9026 59.8532C73.9026 59.278 73.6177 58.7951 72.9778 58.7951H71.6287C71.5669 58.7951 71.5209 58.8408 71.5209 58.9023V60.804C71.5209 60.8655 71.5669 60.9112 71.6287 60.9112H72.9778V60.9037Z" fill="white"></path><path d="M79.6751 63.7723C79.6902 63.7798 79.6985 63.7956 79.6985 63.8106C79.6985 63.8338 79.6834 63.8488 79.6601 63.8488H79.2591C78.9893 63.8488 78.7428 63.7033 78.6041 63.4499L77.8256 61.9164C77.8105 61.8932 77.7796 61.8782 77.7487 61.8782H77.1631C77.1171 61.8782 77.0779 61.9164 77.0779 61.9621V63.4499C77.0779 63.5646 77.1472 63.6643 77.255 63.7033L77.448 63.7798C77.463 63.7873 77.4713 63.8031 77.4713 63.8181C77.4713 63.8413 77.4563 63.8563 77.4329 63.8563H76.2767C76.2534 63.8563 76.2383 63.8406 76.2383 63.8181C76.2383 63.8031 76.2458 63.7873 76.2616 63.7798L76.4546 63.7033C76.5624 63.6651 76.6317 63.5654 76.6317 63.4499V60.2442C76.6317 60.0912 76.539 59.9525 76.4003 59.8993L76.2616 59.846C76.2466 59.8385 76.2383 59.8228 76.2383 59.8078C76.2383 59.7845 76.2534 59.7695 76.2767 59.7695H78.1805C78.9282 59.7695 79.3209 60.2989 79.3209 60.8201C79.3209 61.2498 78.9742 61.8017 78.3034 61.8632C78.2883 61.8632 78.28 61.8789 78.2883 61.8939L78.9667 63.2204C79.082 63.4506 79.2749 63.6268 79.5138 63.7191L79.6601 63.7731H79.6751V63.7723ZM78.1956 61.6097C78.681 61.6097 78.8973 61.2955 78.8973 60.8043C78.8973 60.3672 78.6818 59.999 78.1956 59.999H77.1706C77.1246 59.999 77.0862 60.0372 77.0862 60.0837V61.5332C77.0862 61.579 77.1246 61.6172 77.1706 61.6172L78.1956 61.6097Z" fill="white"></path><path d="M85.1581 61.8096C85.1581 62.9367 84.2334 63.8567 83.1006 63.8567C81.9677 63.8567 81.043 62.9367 81.043 61.8096C81.043 60.6826 81.9677 59.7617 83.1006 59.7617C84.2334 59.7617 85.1581 60.6818 85.1581 61.8096ZM84.7112 61.8096C84.7112 60.9278 84.21 60.0227 83.093 60.0227C81.976 60.0227 81.4824 60.9278 81.4824 61.8096C81.4824 62.6914 82.0914 63.5965 83.1006 63.5965C84.1097 63.5965 84.7112 62.6914 84.7112 61.8096Z" fill="white"></path><path d="M89.055 59.7617C89.8027 59.7617 90.1953 60.2911 90.1953 60.8123C90.1953 61.272 89.8019 61.8703 89.0467 61.8703H88.0217C87.9757 61.8703 87.9373 61.9086 87.9373 61.9551V63.4428C87.9373 63.5575 88.0066 63.6573 88.1144 63.6963L88.3073 63.7728C88.3224 63.7803 88.3307 63.796 88.3307 63.811C88.3307 63.8342 88.3149 63.8492 88.2923 63.8492H87.1361C87.1127 63.8492 87.0977 63.8342 87.0977 63.811C87.0977 63.7953 87.1052 63.7803 87.121 63.7728L87.314 63.6963C87.4217 63.658 87.4911 63.5583 87.4911 63.4428V60.2371C87.4911 60.0834 87.3984 59.9454 87.2597 59.8922L87.121 59.8382C87.1059 59.8307 87.0977 59.815 87.0977 59.8C87.0977 59.7767 87.1127 59.7617 87.1361 59.7617H89.0558H89.055ZM89.055 61.6101C89.5404 61.6101 89.7559 61.2959 89.7559 60.8048C89.7559 60.3676 89.5404 59.9994 89.055 59.9994H88.03C87.984 59.9994 87.9456 60.0377 87.9456 60.0842V61.5337C87.9456 61.5794 87.984 61.6176 88.03 61.6176H89.055V61.6101Z" fill="white"></path><path d="M94.9606 63.1509C94.9839 63.1509 94.999 63.1667 94.999 63.1892V63.7186C94.999 63.7643 94.9606 63.8026 94.9139 63.8026H92.0619C92.0385 63.8026 92.0234 63.7876 92.0234 63.7643C92.0234 63.7486 92.031 63.7336 92.0468 63.7261L92.2315 63.6571C92.3392 63.6188 92.4086 63.5191 92.4086 63.4036V60.1372C92.4086 60.0225 92.3392 59.9227 92.2315 59.8838L92.0468 59.8148C92.031 59.8073 92.0234 59.7915 92.0234 59.7765C92.0234 59.7533 92.0385 59.7383 92.0619 59.7383H94.6749C94.7209 59.7383 94.7601 59.7765 94.7601 59.8223V60.3517C94.7601 60.3749 94.745 60.3899 94.7217 60.3899C94.7066 60.3899 94.6908 60.3824 94.6832 60.3667L94.629 60.2287C94.5747 60.0907 94.4443 59.9985 94.2973 59.991H92.9256C92.8796 59.991 92.8404 60.0292 92.8404 60.075V61.064C92.8404 61.1098 92.8789 61.148 92.9256 61.148H93.8971C94.0516 61.148 94.1903 61.0558 94.2438 60.9178L94.2981 60.7798C94.3056 60.7649 94.3215 60.7566 94.3365 60.7566C94.3599 60.7566 94.375 60.7716 94.375 60.7948V61.7532C94.375 61.7764 94.3599 61.7914 94.3365 61.7914C94.3215 61.7914 94.3056 61.7839 94.2981 61.7682L94.2438 61.6302C94.1896 61.4922 94.0509 61.4 93.8971 61.4H92.9256C92.8796 61.4 92.8404 61.4382 92.8404 61.484V63.5086C92.8404 63.5544 92.8789 63.5926 92.9256 63.5926H94.5212C94.6674 63.5926 94.7985 63.5004 94.8528 63.3624L94.9071 63.2244C94.9146 63.2087 94.9304 63.2012 94.9455 63.2012L94.9606 63.1472V63.1509Z" fill="white"></path><path d="M100.37 63.7723C100.385 63.7798 100.393 63.7956 100.393 63.8106C100.393 63.8338 100.378 63.8488 100.355 63.8488H99.9536C99.6838 63.8488 99.4374 63.7033 99.2987 63.4499L98.5201 61.9164C98.5051 61.8932 98.4741 61.8782 98.4432 61.8782H97.8576C97.8116 61.8782 97.7732 61.9164 97.7732 61.9621V63.4499C97.7732 63.5646 97.8425 63.6643 97.9503 63.7033L98.1433 63.7798C98.1584 63.7873 98.1666 63.8031 98.1666 63.8181C98.1666 63.8413 98.1508 63.8563 98.1282 63.8563H96.972C96.9487 63.8563 96.9336 63.8406 96.9336 63.8181C96.9336 63.8031 96.9411 63.7873 96.957 63.7798L97.1499 63.7033C97.2577 63.6651 97.327 63.5654 97.327 63.4499V60.2442C97.327 60.0912 97.2343 59.9525 97.0956 59.8993L96.957 59.846C96.9419 59.8385 96.9336 59.8228 96.9336 59.8078C96.9336 59.7845 96.9487 59.7695 96.972 59.7695H98.8759C99.6235 59.7695 100.017 60.2989 100.017 60.8201C100.017 61.2498 99.6703 61.8017 98.9995 61.8632C98.9844 61.8632 98.9761 61.8789 98.9844 61.8939L99.6627 63.2204C99.778 63.4506 99.971 63.6268 100.21 63.7191L100.356 63.7731H100.371L100.37 63.7723ZM98.8902 61.6097C99.3756 61.6097 99.5911 61.2955 99.5911 60.8043C99.5911 60.3672 99.3756 59.999 98.8902 59.999H97.8652C97.8192 59.999 97.7807 60.0372 97.7807 60.0837V61.5332C97.7807 61.579 97.8192 61.6172 97.8652 61.6172L98.8902 61.6097Z" fill="white"></path><path d="M104.462 59.7617C104.486 59.7617 104.501 59.7775 104.501 59.8V60.3676C104.501 60.3909 104.486 60.4059 104.462 60.4059C104.446 60.4059 104.431 60.3984 104.424 60.3826L104.37 60.2446C104.315 60.1067 104.177 60.0144 104.023 60.0144H103.43C103.384 60.0144 103.345 60.0527 103.345 60.0984V63.4421C103.345 63.5568 103.415 63.6565 103.522 63.6955L103.715 63.772C103.73 63.7795 103.739 63.7953 103.739 63.8103C103.739 63.8335 103.724 63.8485 103.7 63.8485H102.544C102.521 63.8485 102.506 63.8327 102.506 63.8103C102.506 63.7953 102.513 63.7795 102.529 63.772L102.722 63.6955C102.83 63.6573 102.899 63.5575 102.899 63.4421V60.0984C102.899 60.0527 102.861 60.0144 102.814 60.0144H102.22C102.066 60.0144 101.927 60.1067 101.873 60.2446L101.819 60.3826C101.812 60.3976 101.796 60.4059 101.781 60.4059C101.757 60.4059 101.742 60.3901 101.742 60.3676V59.8C101.742 59.7767 101.758 59.7617 101.781 59.7617H104.463H104.462Z" fill="white"></path><path d="M107.538 63.8101C107.538 63.8334 107.522 63.8484 107.499 63.8484H106.343C106.32 63.8484 106.305 63.8334 106.305 63.8101C106.305 63.7951 106.312 63.7794 106.328 63.7719L106.521 63.6954C106.629 63.6572 106.698 63.5574 106.698 63.4427V60.1838C106.698 60.069 106.629 59.9693 106.521 59.9303L106.328 59.8538C106.313 59.8463 106.305 59.8306 106.305 59.8156C106.305 59.7923 106.32 59.7773 106.343 59.7773H107.499C107.523 59.7773 107.538 59.7931 107.538 59.8156C107.538 59.8306 107.53 59.8463 107.514 59.8538L107.321 59.9303C107.214 59.9686 107.144 60.0683 107.144 60.1838V63.4427C107.144 63.5574 107.214 63.6572 107.321 63.6954L107.514 63.7719C107.529 63.7794 107.538 63.7951 107.538 63.8101Z" fill="white"></path><path d="M112.425 63.1509C112.449 63.1509 112.464 63.1667 112.464 63.1892V63.7186C112.464 63.7643 112.425 63.8026 112.379 63.8026H109.527C109.503 63.8026 109.488 63.7876 109.488 63.7643C109.488 63.7486 109.496 63.7336 109.512 63.7261L109.696 63.6571C109.804 63.6188 109.873 63.5191 109.873 63.4036V60.1372C109.873 60.0225 109.804 59.9227 109.696 59.8838L109.512 59.8148C109.497 59.8073 109.488 59.7915 109.488 59.7765C109.488 59.7533 109.503 59.7383 109.527 59.7383H112.14C112.186 59.7383 112.225 59.7765 112.225 59.8223V60.3517C112.225 60.3749 112.21 60.3899 112.187 60.3899C112.171 60.3899 112.156 60.3824 112.148 60.3667L112.094 60.2287C112.04 60.0907 111.909 59.9985 111.762 59.991H110.39C110.344 59.991 110.305 60.0292 110.305 60.075V61.064C110.305 61.1098 110.344 61.148 110.39 61.148H111.362C111.516 61.148 111.655 61.0558 111.709 60.9178L111.763 60.7798C111.77 60.7649 111.786 60.7566 111.801 60.7566C111.825 60.7566 111.84 60.7716 111.84 60.7948V61.7532C111.84 61.7764 111.825 61.7914 111.801 61.7914C111.786 61.7914 111.77 61.7839 111.763 61.7682L111.709 61.6302C111.654 61.4922 111.516 61.4 111.362 61.4H110.39C110.344 61.4 110.305 61.4382 110.305 61.484V63.5086C110.305 63.5544 110.344 63.5926 110.39 63.5926H111.986C112.132 63.5926 112.263 63.5004 112.318 63.3624L112.372 63.2244C112.379 63.2087 112.395 63.2012 112.41 63.2012L112.425 63.1472V63.1509Z" fill="white"></path><path d="M114.815 60.8421C114.815 61.241 115.216 61.394 115.732 61.6399C116.164 61.8469 116.943 62.1229 116.943 62.7977C116.943 63.3579 116.357 63.8176 115.532 63.8176C115.277 63.8176 115.046 63.7411 114.861 63.6488C114.73 63.5798 114.56 63.6256 114.507 63.7411C114.483 63.7868 114.468 63.7951 114.445 63.7951C114.414 63.7951 114.391 63.7793 114.391 63.7568V62.6065C114.391 62.5608 114.468 62.5525 114.491 62.5915C114.491 62.5915 114.853 63.5574 115.539 63.5574C116.225 63.5574 116.518 63.1659 116.518 62.7902C116.518 62.4145 116.04 62.2301 115.763 62.0771C115.3 61.8319 114.406 61.5327 114.406 60.7738C114.406 60.2137 114.846 59.7158 115.817 59.754C116.071 59.7615 116.302 59.8305 116.487 59.9227C116.619 59.9917 116.788 59.946 116.842 59.8305C116.866 59.7848 116.881 59.7765 116.904 59.7765C116.935 59.7765 116.958 59.7923 116.958 59.8148V60.9651C116.958 60.9883 116.935 61.0033 116.904 61.0033C116.881 61.0033 116.866 60.9958 116.858 60.9801C116.858 60.9801 116.488 60.0525 115.81 60.0142C115.124 59.9835 114.816 60.4282 114.816 60.8421" fill="white"></path><path d="M121.667 62.3147C121.369 62.0177 120.971 61.8535 120.549 61.8535C120.127 61.8535 119.73 62.017 119.432 62.3147C119.133 62.6116 118.969 63.0068 118.969 63.4267C118.969 63.8467 119.133 64.2418 119.432 64.5388C119.73 64.8357 120.127 65 120.549 65C120.971 65 121.369 64.8365 121.667 64.5388C121.965 64.2418 122.13 63.8467 122.13 63.4267C122.13 63.0068 121.965 62.6116 121.667 62.3147ZM120.549 64.7413C119.821 64.7413 119.228 64.1519 119.228 63.4267C119.228 62.7016 119.82 62.1122 120.549 62.1122C121.278 62.1122 121.87 62.7016 121.87 63.4267C121.87 64.1519 121.278 64.7413 120.549 64.7413Z" fill="white"></path><path d="M120.912 63.4673C121.117 63.3795 121.22 63.2355 121.22 63.0353C121.22 62.8839 121.155 62.7646 121.023 62.6769C120.891 62.5892 120.714 62.5449 120.49 62.5449C120.34 62.5449 120.17 62.5607 119.98 62.5929V64.3056H120.229V63.5482H120.545C120.8 63.5482 120.963 63.8009 121.035 64.3056H121.284C121.241 64.0424 121.193 63.8519 121.14 63.735C121.085 63.618 121.01 63.5287 120.913 63.468M120.533 63.357H120.229V62.7571C120.298 62.7496 120.384 62.7459 120.49 62.7459C120.816 62.7459 120.98 62.8471 120.98 63.0496C120.98 63.252 120.831 63.357 120.534 63.357" fill="white"></path></g><defs><linearGradient id="paint0_linear_12002_284" x1="116.606" y1="-6.95681" x2="116.61" y2="-6.95681" gradientUnits="userSpaceOnUse"><stop stop-color="#B37000"></stop><stop offset="0.5" stop-color="#F9E86D"></stop><stop offset="0.69" stop-color="#E8C754"></stop><stop offset="0.89" stop-color="#DBAC3F"></stop><stop offset="1" stop-color="#D6A238"></stop></linearGradient><linearGradient id="paint1_linear_12002_284" x1="0.0021724" y1="32.3215" x2="123.002" y2="32.3215" gradientUnits="userSpaceOnUse"><stop stop-color="#B37000"></stop><stop offset="0.5" stop-color="#F9E86D"></stop><stop offset="0.69" stop-color="#E8C754"></stop><stop offset="0.89" stop-color="#DBAC3F"></stop><stop offset="1" stop-color="#D6A238"></stop></linearGradient><clipPath id="clip0_12002_284"><rect width="123" height="65" fill="white"></rect></clipPath></defs></svg>